<?xml version="1.0" standalone="no"?>
<!DOCTYPE svg PUBLIC "-//W3C//DTD SVG 20010904//EN"
 "http://www.w3.org/TR/2001/REC-SVG-20010904/DTD/svg10.dtd">
<svg version="1.0" xmlns="http://www.w3.org/2000/svg"
 width="994.000000pt" height="994.000000pt" viewBox="0 0 994.000000 994.000000"
 preserveAspectRatio="xMidYMid meet">
<metadata>
Created by potrace 1.14, written by Peter Selinger 2001-2017
</metadata>
<g transform="translate(0.000000,994.000000) scale(0.100000,-0.100000)"
fill="#000000" stroke="none">
<path d="M5089 8625 c-1 -3 -2 -8 -4 -12 -2 -8 -20 -55 -32 -83 -3 -8 -7 -18
-7 -22 -1 -3 -4 -10 -8 -14 -5 -4 -8 -15 -8 -25 0 -10 -7 -25 -16 -33 -8 -9
-12 -16 -9 -16 4 0 0 -11 -9 -25 -9 -14 -13 -25 -10 -25 4 0 -1 -9 -11 -20
-10 -11 -15 -20 -12 -20 4 0 -10 -33 -30 -72 -21 -40 -36 -76 -35 -80 1 -5 -3
-8 -10 -8 -6 0 -9 -3 -5 -6 3 -3 -5 -24 -19 -45 -13 -21 -24 -43 -24 -47 0 -5
-9 -21 -21 -36 -11 -14 -17 -26 -14 -26 4 0 -1 -12 -11 -27 -16 -26 -47 -78
-112 -192 -13 -25 -29 -50 -33 -55 -5 -6 -42 -60 -82 -120 -109 -165 -112
-169 -146 -205 -17 -18 -31 -37 -31 -42 0 -5 -4 -9 -9 -9 -5 0 -13 -9 -16 -20
-3 -11 -14 -20 -22 -20 -9 0 -14 -3 -10 -6 5 -5 -14 -26 -92 -97 -17 -16 -31
-32 -31 -36 0 -8 89 -101 97 -101 3 0 14 -11 25 -25 11 -14 23 -25 28 -25 5 0
22 -11 37 -25 66 -60 159 -126 263 -186 14 -8 33 -20 43 -28 9 -8 17 -10 17
-5 0 5 4 4 8 -2 6 -10 363 -192 402 -206 8 -3 12 -8 9 -11 -4 -6 -223 -49
-309 -62 -14 -2 -88 -16 -165 -30 -77 -14 -201 -37 -275 -50 -74 -13 -148 -27
-165 -30 -24 -5 -720 -130 -825 -149 -24 -4 -248 -45 -470 -86 -294 -54 -727
-132 -750 -135 -14 -2 -74 -13 -135 -24 -145 -28 -263 -49 -300 -55 -16 -3
-142 -26 -280 -51 -137 -25 -302 -55 -365 -66 -63 -11 -162 -28 -220 -39 -58
-11 -121 -22 -140 -26 -139 -24 -300 -54 -325 -59 -16 -4 -104 -20 -195 -36
-91 -16 -177 -32 -191 -35 l-26 -5 13 -72 c8 -40 25 -128 38 -197 23 -121 24
-141 24 -614 1 -531 0 -524 58 -546 l24 -10 0 -1445 0 -1445 2913 0 2912 0 -1
1741 c-1 1407 -4 1743 -14 1749 -10 6 -6 14 13 33 15 13 27 26 27 29 0 3 21
27 48 55 26 27 58 64 72 82 14 18 30 38 36 45 36 38 172 250 168 260 -3 7 -26
23 -53 34 -26 12 -57 31 -69 42 -12 12 -22 18 -22 15 0 -5 -120 75 -140 92 -3
3 3 11 14 18 20 15 73 61 124 109 29 27 33 28 31 11 -2 -11 5 -35 15 -54 17
-32 27 -51 68 -122 7 -13 15 -26 18 -29 3 -3 23 -31 43 -62 21 -32 43 -58 49
-58 6 0 9 -3 5 -6 -3 -3 2 -15 11 -26 35 -43 320 -326 386 -383 38 -33 75 -66
82 -72 19 -19 50 -16 129 13 39 14 76 25 83 26 6 1 12 5 12 10 0 4 9 8 20 8
11 0 20 3 20 8 0 4 23 18 51 32 64 31 195 130 284 214 39 36 73 66 78 66 4 0
7 7 7 15 0 8 5 15 11 15 6 0 28 19 49 43 21 23 58 64 83 91 l45 48 20 -53 c63
-168 219 -507 250 -541 8 -10 12 -18 8 -18 -4 0 4 -19 17 -42 89 -158 72 -148
262 -153 72 -2 155 1 185 6 30 6 71 12 90 14 19 2 50 8 69 14 18 6 36 10 40 9
31 -7 352 110 521 190 52 24 101 45 108 45 6 0 12 4 12 7 0 4 15 13 33 21 40
16 191 99 275 151 35 21 71 42 80 46 47 19 152 98 152 114 0 10 -4 18 -10 18
-5 0 -10 7 -10 15 0 8 -4 15 -10 15 -5 0 -16 12 -24 28 -8 15 -26 41 -40 57
-14 17 -26 36 -26 43 0 6 -4 12 -8 12 -10 0 -37 50 -34 63 1 4 -2 7 -7 7 -7 0
-71 95 -71 105 0 3 -18 34 -39 69 -22 35 -48 81 -59 103 -72 142 -103 200
-112 210 -5 7 -10 16 -10 21 0 8 -46 102 -65 132 -5 8 -10 20 -11 25 -1 6 -20
48 -42 95 -66 143 -82 179 -82 190 0 5 -4 10 -8 10 -4 0 -8 10 -9 22 -1 12 -9
28 -18 37 -14 14 -17 14 -25 1 -5 -8 -10 -11 -10 -7 0 5 -12 0 -27 -10 -47
-31 -406 -203 -433 -207 -3 -1 -24 -8 -45 -18 -34 -14 -67 -27 -85 -33 -3 -1
-14 -5 -25 -9 -11 -5 -45 -17 -75 -28 -30 -11 -62 -24 -70 -28 -9 -4 -31 -11
-50 -15 -19 -4 -39 -10 -45 -13 -5 -4 -16 -7 -22 -8 -7 -1 -43 -12 -80 -24
-78 -25 -77 -25 -164 -44 -157 -35 -225 -46 -314 -49 -41 -1 -75 -5 -75 -9 0
-5 -11 -8 -25 -8 -14 0 -25 -4 -25 -10 0 -17 -19 -11 -51 18 -17 15 -35 26
-40 25 -5 -2 -9 2 -9 8 0 14 -25 39 -39 39 -6 0 -11 7 -11 15 0 8 -5 15 -10
15 -6 0 -65 54 -131 120 -67 66 -126 120 -131 120 -5 0 -7 3 -5 8 2 4 -4 14
-13 23 -15 14 -20 12 -56 -29 -75 -85 -279 -289 -354 -353 -41 -35 -77 -66
-80 -69 -14 -16 -179 -139 -200 -150 -14 -7 -27 -16 -30 -20 -11 -15 -165
-100 -182 -100 -27 0 -32 20 -9 44 23 23 72 89 112 151 84 130 249 468 249
511 0 7 3 14 8 16 4 2 26 59 50 128 39 115 41 125 25 134 -10 5 -25 11 -33 12
-81 13 -391 119 -398 136 -2 5 -8 6 -12 3 -5 -3 -26 3 -46 14 -21 11 -41 18
-46 15 -4 -3 -8 -2 -8 3 0 8 -15 16 -92 48 -40 16 -52 50 -23 61 8 4 13 10 10
14 -3 5 -1 11 4 14 18 12 231 420 231 443 0 7 5 13 10 13 6 0 9 3 8 8 -1 4 12
38 30 76 36 77 162 417 162 439 0 7 5 18 12 25 7 7 9 12 6 12 -4 0 2 25 12 56
11 31 17 60 15 64 -4 7 -43 19 -80 25 -5 1 -12 3 -15 4 -3 1 -16 4 -30 7 -14
2 -32 7 -40 11 -8 3 -19 7 -25 8 -5 2 -44 13 -85 25 -41 12 -77 22 -80 22 -3
0 -11 4 -17 10 -7 6 -13 8 -13 5 0 -4 -20 2 -45 13 -25 11 -45 17 -45 13 0 -3
-7 0 -15 7 -8 7 -15 10 -15 7 0 -3 -24 5 -52 18 -29 14 -61 25 -70 25 -10 0
-18 5 -18 10 0 6 -3 9 -7 8 -13 -3 -93 25 -93 32 0 4 -6 7 -14 7 -8 0 -29 7
-48 16 -34 16 -89 39 -98 42 -3 0 -15 6 -26 13 -12 6 -24 9 -26 6 -3 -2 -11 2
-18 11 -7 8 -16 15 -20 15 -5 0 -30 10 -57 22 -26 12 -50 22 -53 22 -8 1 -124
60 -130 66 -3 3 -14 7 -25 8 -11 2 -23 9 -27 15 -4 7 -8 9 -8 5 0 -4 -30 8
-66 27 -65 34 -83 40 -85 30z m385 -2938 c22 -12 44 -26 47 -31 4 -5 12 -5 18
-2 21 14 11 -21 -14 -44 -13 -12 -22 -28 -18 -34 3 -6 3 -8 -2 -4 -4 4 -17 -2
-27 -15 -30 -34 -188 -197 -188 -193 0 1 -21 -17 -47 -41 -55 -49 -83 -54
-119 -18 -14 14 -28 25 -31 25 -3 0 -16 11 -29 26 -13 14 -24 22 -24 18 0 -3
-13 8 -28 24 l-29 30 -16 -26 c-8 -15 -25 -37 -37 -49 -11 -13 -18 -23 -15
-23 3 0 -3 -8 -12 -18 -10 -10 -37 -41 -60 -68 -64 -77 -107 -119 -116 -116
-5 1 -6 -1 -4 -6 12 -18 -237 -235 -337 -295 l-68 -41 -1622 0 -1621 1 -53 53
c-28 29 -52 56 -52 59 0 5 86 23 225 47 17 2 77 13 135 24 58 11 121 22 140
25 19 3 42 8 50 10 8 2 33 7 55 10 41 7 53 9 245 43 63 12 129 24 145 26 17 3
41 8 55 11 14 3 39 7 55 10 17 3 66 12 110 20 44 8 143 26 220 40 77 14 151
27 165 30 14 3 88 16 165 30 185 33 180 32 330 60 72 13 146 27 165 30 41 7
163 29 305 55 55 11 156 29 224 40 69 12 127 23 131 25 3 2 26 6 50 10 25 3
115 19 200 35 85 15 223 40 305 55 83 15 159 29 170 31 11 3 58 11 105 19 81
13 321 57 385 69 29 6 177 32 240 42 16 3 30 6 32 7 11 11 63 3 97 -16z"/>
<path d="M7860 8382 c-20 -20 -64 -62 -99 -92 -35 -30 -70 -61 -77 -67 -7 -7
-15 -13 -18 -13 -3 0 -14 -8 -24 -17 -10 -10 -31 -28 -48 -40 -16 -12 -38 -29
-49 -38 -53 -40 -95 -71 -115 -85 -12 -8 -48 -34 -81 -57 -32 -24 -63 -43 -68
-43 -5 0 -11 -4 -13 -8 -3 -8 -105 -74 -173 -112 -19 -11 -52 -30 -72 -42 -97
-55 -237 -117 -325 -143 -32 -9 -58 -21 -58 -27 0 -45 134 -325 211 -440 21
-33 39 -64 39 -69 0 -5 4 -9 8 -9 4 0 15 -13 24 -28 9 -15 39 -57 67 -92 28
-36 54 -70 58 -75 9 -12 88 -109 118 -144 21 -24 25 -29 122 -137 34 -38 71
-79 82 -92 26 -30 68 -33 171 -11 101 22 102 22 118 32 6 5 12 6 12 3 0 -13
204 80 298 136 34 21 67 38 72 38 6 0 13 7 16 15 4 8 10 15 15 15 12 0 69 40
91 63 9 10 20 18 25 18 8 0 133 95 183 139 14 12 48 40 75 63 57 48 395 382
395 391 0 8 -38 46 -46 46 -6 0 -23 14 -85 73 -16 15 -34 27 -39 27 -6 0 -10
7 -10 15 0 8 -5 15 -10 15 -11 0 -232 220 -306 305 -27 31 -64 72 -81 91 -18
19 -33 38 -33 44 0 5 -9 12 -20 15 -11 3 -20 12 -20 20 0 7 -11 22 -25 33 -14
11 -25 23 -25 27 0 4 -21 32 -47 63 -27 31 -52 63 -58 70 -5 8 -20 24 -31 37
-12 13 -19 26 -16 29 3 3 0 6 -6 6 -7 0 -12 7 -12 15 0 8 -6 15 -14 15 -8 0
-17 11 -20 25 -4 14 -11 23 -16 20 -6 -3 -10 -1 -10 4 0 19 -14 11 -50 -27z"/>
</g>
</svg>
